<?xml version="1.0" encoding="UTF-8" standalone="no"?>
<!DOCTYPE svg PUBLIC "-//W3C//DTD SVG 1.1//EN" "http://www.w3.org/Graphics/SVG/1.1/DTD/svg11.dtd">
<svg width="100%" height="100%" viewBox="0 0 313 83" version="1.1" xmlns="http://www.w3.org/2000/svg" xmlns:xlink="http://www.w3.org/1999/xlink" xml:space="preserve" xmlns:serif="http://www.serif.com/" style="fill-rule:evenodd;clip-rule:evenodd;stroke-linejoin:round;stroke-miterlimit:2;">
    <g transform="matrix(1,0,0,1,-38.3147,-16.4586)">
        <g transform="matrix(0.545201,0,0,0.545201,36.0249,-109.465)">
            <path d="M110.656,334.577C107.292,326.001 105.445,316.664 105.445,306.9C105.445,264.991 139.469,230.967 181.377,230.967C183.422,230.967 185.449,231.048 187.455,231.208C181.139,233.552 176.637,239.632 176.637,246.765C176.637,255.925 184.065,263.352 193.225,263.352C202.388,263.352 209.814,255.925 209.814,246.765C209.814,241.926 207.742,237.57 204.436,234.538C235.085,244.309 257.309,273.029 257.309,306.9C257.309,316.664 255.462,326.001 252.099,334.577C249.897,321.063 238.171,310.749 224.034,310.749C208.335,310.764 195.612,323.487 195.597,339.186C195.597,354.892 208.328,367.623 224.034,367.623C225.097,367.623 226.147,367.564 227.179,367.45C214.448,377.101 198.576,382.832 181.377,382.832C164.178,382.832 148.307,377.101 135.571,367.447C136.606,367.562 137.656,367.622 138.721,367.623C154.426,367.623 167.158,354.892 167.158,339.186C167.158,323.48 154.426,310.749 138.721,310.749C124.584,310.749 112.857,321.063 110.656,334.577ZM140.617,295.581L176.637,322.597L176.637,348.665C176.637,351.281 178.759,353.405 181.377,353.405C183.994,353.405 186.116,351.281 186.116,348.665L186.116,320.228C186.116,318.735 185.415,317.331 184.222,316.435L151.484,291.884L176.732,273.874L202.444,291.019C203.227,291.526 204.141,291.795 205.076,291.791L219.293,291.791C221.912,291.791 224.034,289.669 224.034,287.05C224.034,284.434 221.912,282.312 219.293,282.312L206.497,282.312L179.253,264.148C177.615,263.057 175.472,263.089 173.87,264.235L140.693,287.931C139.465,288.812 138.729,290.227 138.714,291.737C138.699,293.249 139.406,294.676 140.617,295.581Z" style="fill:white;"/>
        </g>
        <path d="M98.03,26.767C89.404,34.356 83.956,45.475 83.956,57.857C83.956,70.238 89.404,81.358 98.03,88.947C70.235,76.685 38.315,57.857 38.315,57.857C38.315,57.857 70.235,39.028 98.03,26.767ZM294.191,45.991C299.196,45.991 303.179,47.08 306.138,49.26C309.098,51.439 310.578,54.87 310.578,59.552L310.578,78.361C310.578,79.598 310.296,80.553 309.731,81.226C309.166,81.899 308.399,82.531 307.43,83.123C306.031,83.93 304.228,84.63 302.022,85.222C299.815,85.814 297.259,86.11 294.353,86.11C289.133,86.11 285.056,85.087 282.123,83.042C279.19,80.997 277.724,77.984 277.724,74.001C277.724,70.45 278.868,67.732 281.155,65.848C283.442,63.965 286.738,62.808 291.043,62.377L302.264,61.247L302.264,59.471C302.264,57.103 301.497,55.381 299.963,54.305C298.429,53.229 296.29,52.691 293.546,52.691C291.393,52.691 289.321,52.987 287.33,53.579C285.339,54.171 283.563,54.843 282.002,55.597C281.464,55.166 281.007,54.641 280.63,54.023C280.253,53.404 280.065,52.718 280.065,51.964C280.065,51.049 280.294,50.296 280.751,49.704C281.209,49.112 281.922,48.601 282.89,48.17C284.397,47.417 286.119,46.865 288.057,46.515C289.994,46.166 292.039,45.991 294.191,45.991ZM207.657,45.991C209.271,45.991 210.791,46.166 212.217,46.515C213.643,46.865 214.895,47.309 215.971,47.847L215.971,32.51C216.348,32.402 216.886,32.268 217.585,32.106C218.285,31.945 219.038,31.864 219.846,31.864C221.406,31.864 222.563,32.16 223.317,32.752C224.07,33.344 224.447,34.34 224.447,35.739L224.447,78.038C224.447,79.168 224.205,80.096 223.72,80.823C223.236,81.549 222.483,82.235 221.46,82.881C220.222,83.688 218.541,84.415 216.415,85.061C214.289,85.706 211.854,86.029 209.11,86.029C206.042,86.029 203.244,85.639 200.714,84.859C198.185,84.078 196.032,82.868 194.257,81.226C192.481,79.585 191.108,77.513 190.14,75.011C189.171,72.508 188.687,69.562 188.687,66.171C188.687,62.673 189.184,59.646 190.18,57.09C191.176,54.534 192.534,52.435 194.257,50.794C195.979,49.152 197.983,47.941 200.27,47.161C202.558,46.381 205.02,45.991 207.657,45.991ZM231.631,80.621C231.631,79.06 232.102,77.769 233.044,76.746C233.986,75.724 235.291,75.212 236.959,75.212C238.681,75.212 240,75.724 240.914,76.746C241.829,77.769 242.287,79.06 242.287,80.621C242.287,82.181 241.829,83.473 240.914,84.495C240,85.518 238.681,86.029 236.959,86.029C235.291,86.029 233.986,85.518 233.044,84.495C232.102,83.473 231.631,82.181 231.631,80.621ZM346.984,85.383C345.424,85.383 344.267,85.087 343.513,84.495C342.76,83.903 342.383,82.908 342.383,81.509L342.383,32.51C342.76,32.402 343.298,32.268 343.997,32.106C344.697,31.945 345.451,31.864 346.258,31.864C347.818,31.864 348.975,32.16 349.729,32.752C350.482,33.344 350.859,34.34 350.859,35.739L350.859,84.738C350.428,84.899 349.877,85.047 349.204,85.182C348.531,85.316 347.791,85.383 346.984,85.383ZM330.194,84.738C329.817,84.899 329.292,85.047 328.62,85.182C327.947,85.316 327.18,85.383 326.319,85.383C324.759,85.383 323.602,85.087 322.848,84.495C322.095,83.903 321.718,82.908 321.718,81.509L321.718,47.363C322.148,47.255 322.7,47.121 323.373,46.959C324.045,46.798 324.812,46.717 325.673,46.717C327.234,46.717 328.378,47.013 329.104,47.605C329.831,48.197 330.194,49.22 330.194,50.673L330.194,84.738ZM257.705,84.738C257.328,84.899 256.803,85.047 256.131,85.182C255.458,85.316 254.718,85.383 253.911,85.383C252.35,85.383 251.193,85.087 250.44,84.495C249.686,83.903 249.31,82.908 249.31,81.509L249.31,55.032C249.31,53.686 249.579,52.596 250.117,51.762C250.655,50.928 251.516,50.134 252.7,49.381C254.261,48.412 256.252,47.605 258.673,46.959C261.095,46.314 263.759,45.991 266.665,45.991C271.401,45.991 273.769,47.336 273.769,50.027C273.769,50.673 273.661,51.278 273.446,51.843C273.23,52.408 272.988,52.906 272.719,53.336C272.181,53.229 271.508,53.121 270.701,53.014C269.894,52.906 269.033,52.852 268.118,52.852C265.965,52.852 264.001,53.081 262.225,53.538C260.449,53.996 258.942,54.574 257.705,55.274L257.705,84.738ZM294.353,79.491C296.236,79.491 297.878,79.302 299.277,78.926C300.676,78.549 301.672,78.145 302.264,77.715L302.264,67.463L293.465,68.351C290.989,68.62 289.133,69.172 287.895,70.006C286.657,70.84 286.038,72.118 286.038,73.84C286.038,75.616 286.711,77.002 288.057,77.997C289.402,78.993 291.501,79.491 294.353,79.491ZM216.052,54.951C215.137,54.359 214.061,53.848 212.823,53.417C211.585,52.987 210.213,52.771 208.706,52.771C207.091,52.771 205.598,53.014 204.226,53.498C202.854,53.982 201.656,54.776 200.634,55.879C199.611,56.982 198.804,58.382 198.212,60.077C197.62,61.772 197.324,63.83 197.324,66.252C197.324,70.773 198.387,74.055 200.513,76.1C202.638,78.145 205.477,79.168 209.029,79.168C210.643,79.168 212.002,78.993 213.105,78.643C214.209,78.293 215.191,77.876 216.052,77.392L216.052,54.951ZM320.83,35.497C320.83,34.097 321.314,32.927 322.283,31.985C323.252,31.043 324.489,30.573 325.996,30.573C327.503,30.573 328.714,31.043 329.629,31.985C330.544,32.927 331.001,34.097 331.001,35.497C331.001,36.896 330.544,38.066 329.629,39.008C328.714,39.95 327.503,40.421 325.996,40.421C324.489,40.421 323.252,39.95 322.283,39.008C321.314,38.066 320.83,36.896 320.83,35.497Z" style="fill:rgb(240,227,25);"/>
    </g>
</svg>
